<?xml version="1.0" encoding="UTF-8"?>
<!--Generator: Apple Native CoreSVG 149-->
<!DOCTYPE svg
PUBLIC "-//W3C//DTD SVG 1.1//EN"
       "http://www.w3.org/Graphics/SVG/1.1/DTD/svg11.dtd">
<svg version="1.1" xmlns="http://www.w3.org/2000/svg" xmlns:xlink="http://www.w3.org/1999/xlink" width="104" height="128">
 <!--glyph: "uni100148.medium", point size: 100.000000, font version: "Version 16.0d18e1", template writer version: "8"-->
 <g id="Symbols">
  <g id="Regular-M" transform="matrix(1 0 0 1 0 100)">
   <path d="M50.0977-44.873C51.3184-44.873 52.2461-45.2637 52.9297-45.9961L73.0469-66.2109C73.9258-67.041 74.2676-68.0176 74.2676-69.1406C74.2676-70.2148 73.8281-71.2891 73.0469-72.0703L52.9297-92.4805C52.2461-93.2617 51.2695-93.6523 50.0977-93.6523C47.9004-93.6523 46.2402-91.8945 46.2402-89.6484C46.2402-88.623 46.6309-87.6465 47.3145-86.8652L60.3516-74.0723C57.5684-74.5605 54.7363-74.8535 51.9043-74.8535C27.9785-74.8535 8.74023-55.6641 8.74023-31.7383C8.74023-7.76367 27.9785 11.4746 51.9043 11.4746C75.8301 11.4746 95.0195-7.76367 95.0195-31.7383C95.0195-34.082 93.3594-35.791 90.9668-35.791C88.6719-35.791 87.1582-34.082 87.1582-31.7383C87.1582-12.1094 71.4844 3.61328 51.9043 3.61328C32.3242 3.61328 16.6016-12.1094 16.6016-31.7383C16.6016-51.3184 32.3242-66.9922 51.9043-66.9922C55.6152-66.9922 59.0332-66.6992 61.9629-66.0645L47.3633-51.5625C46.6309-50.7812 46.2402-49.8047 46.2402-48.7793C46.2402-46.5332 47.9004-44.873 50.0977-44.873Z"/>
  </g>
 </g>
</svg>
