<?xml version="1.0" encoding="UTF-8"?>
<!--Generator: Apple Native CoreSVG 149-->
<!DOCTYPE svg
PUBLIC "-//W3C//DTD SVG 1.1//EN"
       "http://www.w3.org/Graphics/SVG/1.1/DTD/svg11.dtd">
<svg version="1.1" xmlns="http://www.w3.org/2000/svg" xmlns:xlink="http://www.w3.org/1999/xlink" width="106" height="128">
 <!--glyph: "uni10017C.medium", point size: 100.000000, font version: "Version 16.0d18e1", template writer version: "8"-->
 <g id="Symbols">
  <g id="Regular-M" transform="matrix(1 0 0 1 0 100)">
   <path d="M16.7969-30.9082L48.3887-30.9082L48.3887 0.683594C48.3887 3.02734 50.3418 5.0293 52.7344 5.0293C55.127 5.0293 57.1289 3.02734 57.1289 0.683594L57.1289-30.9082L88.6719-30.9082C91.0156-30.9082 93.0176-32.8613 93.0176-35.2539C93.0176-37.6465 91.0156-39.6484 88.6719-39.6484L57.1289-39.6484L57.1289-71.1914C57.1289-73.5352 55.127-75.5371 52.7344-75.5371C50.3418-75.5371 48.3887-73.5352 48.3887-71.1914L48.3887-39.6484L16.7969-39.6484C14.4531-39.6484 12.4512-37.6465 12.4512-35.2539C12.4512-32.8613 14.4531-30.9082 16.7969-30.9082Z"/>
  </g>
 </g>
</svg>
