<?xml version="1.0" encoding="UTF-8"?>
<!--Generator: Apple Native CoreSVG 149-->
<!DOCTYPE svg
PUBLIC "-//W3C//DTD SVG 1.1//EN"
       "http://www.w3.org/Graphics/SVG/1.1/DTD/svg11.dtd">
<svg version="1.1" xmlns="http://www.w3.org/2000/svg" xmlns:xlink="http://www.w3.org/1999/xlink" width="118" height="128">
 <!--glyph: "uni100175.medium", point size: 100.000000, font version: "Version 16.0d18e1", template writer version: "8"-->
 <g id="Symbols">
  <g id="Regular-M" transform="matrix(1 0 0 1 0 100)">
   <path d="M58.5449 14.5508C85.791 14.5508 108.35-8.05664 108.35-35.2539C108.35-62.5 85.7422-85.0586 58.4961-85.0586C31.2988-85.0586 8.74023-62.5 8.74023-35.2539C8.74023-8.05664 31.3477 14.5508 58.5449 14.5508ZM58.0566-53.0762C54.3945-53.0762 51.4648-56.0059 51.4648-59.7168C51.4648-63.4277 54.3945-66.3574 58.0566-66.3574C61.7188-66.3574 64.5996-63.4277 64.5996-59.7168C64.5996-56.0059 61.7188-53.0762 58.0566-53.0762ZM49.707-7.4707C47.6074-7.4707 45.9961-8.98438 45.9961-11.084C45.9961-13.0371 47.6074-14.6484 49.707-14.6484L55.9082-14.6484L55.9082-37.5977L50.5371-37.5977C48.4863-37.5977 46.875-39.1113 46.875-41.2109C46.875-43.1641 48.4863-44.7754 50.5371-44.7754L60.0098-44.7754C62.5977-44.7754 63.9648-42.9199 63.9648-40.1855L63.9648-14.6484L70.166-14.6484C72.2656-14.6484 73.877-13.0371 73.877-11.084C73.877-8.98438 72.2656-7.4707 70.166-7.4707Z"/>
  </g>
 </g>
</svg>
