<?xml version="1.0" encoding="UTF-8"?>
<!--Generator: Apple Native CoreSVG 149-->
<!DOCTYPE svg
PUBLIC "-//W3C//DTD SVG 1.1//EN"
       "http://www.w3.org/Graphics/SVG/1.1/DTD/svg11.dtd">
<svg version="1.1" xmlns="http://www.w3.org/2000/svg" xmlns:xlink="http://www.w3.org/1999/xlink" width="118" height="128">
 <g id="Symbols">
  <g id="Regular-M" transform="matrix(1 0 0 1 0 100)">
   <path d="M58.5449 14.5508C85.791 14.5508 108.35-8.05664 108.35-35.2539C108.35-62.5 85.7422-85.0586 58.4961-85.0586C31.2988-85.0586 8.74023-62.5 8.74023-35.2539C8.74023-8.05664 31.3477 14.5508 58.5449 14.5508ZM40.1855-21.875L40.1855-48.6328C40.1855-51.7578 42.0898-53.5645 45.2148-53.5645L71.7773-53.5645C74.9512-53.5645 76.8066-51.7578 76.8066-48.6328L76.8066-21.875C76.8066-18.7988 74.9512-16.9434 71.7773-16.9434L45.2148-16.9434C42.0898-16.9434 40.1855-18.7988 40.1855-21.875Z"/>
  </g>
 </g>
</svg>
