<?xml version="1.0" encoding="UTF-8"?>
<!--Generator: Apple Native CoreSVG 149-->
<!DOCTYPE svg
PUBLIC "-//W3C//DTD SVG 1.1//EN"
       "http://www.w3.org/Graphics/SVG/1.1/DTD/svg11.dtd">
<svg version="1.1" xmlns="http://www.w3.org/2000/svg" xmlns:xlink="http://www.w3.org/1999/xlink" width="118" height="128">
 <!--glyph: "uni100361.medium", point size: 100.000000, font version: "Version 16.0d18e1", template writer version: "8"-->
 <g id="Symbols">
  <g id="Regular-M" transform="matrix(1 0 0 1 0 100)">
   <path d="M58.5449 14.5508C85.791 14.5508 108.35-8.05664 108.35-35.2539C108.35-62.5 85.7422-85.0586 58.4961-85.0586C31.2988-85.0586 8.74023-62.5 8.74023-35.2539C8.74023-8.05664 31.3477 14.5508 58.5449 14.5508ZM58.5449 6.25C35.498 6.25 17.0898-12.207 17.0898-35.2539C17.0898-58.3008 35.4492-76.7578 58.4961-76.7578C81.543-76.7578 100-58.3008 100.049-35.2539C100.098-12.207 81.5918 6.25 58.5449 6.25ZM35.7422-28.125C39.6484-28.125 42.8223-31.3477 42.8223-35.2539C42.8223-39.1602 39.5996-42.3828 35.7422-42.3828C31.7871-42.3828 28.6133-39.1602 28.6133-35.2539C28.6133-31.3477 31.7871-28.125 35.7422-28.125ZM58.4961-28.125C62.4023-28.125 65.625-31.3477 65.625-35.2539C65.625-39.1602 62.4023-42.3828 58.4961-42.3828C54.5898-42.3828 51.3672-39.1602 51.3672-35.2539C51.3672-31.3477 54.5898-28.125 58.4961-28.125ZM81.2988-28.125C85.2051-28.125 88.3789-31.3477 88.3789-35.2539C88.3789-39.1602 85.2051-42.3828 81.2988-42.3828C77.3438-42.3828 74.1699-39.1602 74.1699-35.2539C74.1699-31.3477 77.3438-28.125 81.2988-28.125Z"/>
  </g>
 </g>
</svg>
