<?xml version="1.0" encoding="UTF-8"?>
<!--Generator: Apple Native CoreSVG 149-->
<!DOCTYPE svg
PUBLIC "-//W3C//DTD SVG 1.1//EN"
       "http://www.w3.org/Graphics/SVG/1.1/DTD/svg11.dtd">
<svg version="1.1" xmlns="http://www.w3.org/2000/svg" xmlns:xlink="http://www.w3.org/1999/xlink" width="118" height="128">
 <g id="Symbols">
  <g id="Light-M" transform="matrix(1 0 0 1 0 100)">
   <path d="M57.7148 13.7207C84.5215 13.7207 106.689-8.44727 106.689-35.2539C106.689-62.1094 84.5215-84.2285 57.666-84.2285C30.8594-84.2285 8.74023-62.1094 8.74023-35.2539C8.74023-8.44727 30.9082 13.7207 57.7148 13.7207ZM57.7148 7.37305C34.082 7.37305 15.0879-11.6699 15.0879-35.2539C15.0879-58.8867 34.082-77.9297 57.666-77.9297C81.2988-77.9297 100.342-58.8867 100.391-35.2539C100.391-11.6699 81.3477 7.37305 57.7148 7.37305ZM57.666-25.7812C62.5488-25.7812 65.8203-29.541 65.8203-34.5215L65.8203-55.7129C65.8203-60.6934 62.5488-64.4531 57.666-64.4531C52.832-64.4531 49.5605-60.6934 49.5605-55.7129L49.5605-34.5215C49.5605-29.541 52.832-25.7812 57.666-25.7812ZM45.6055-5.56641L69.8242-5.56641C70.9473-5.56641 71.9727-6.5918 71.9727-7.71484C71.9727-8.88672 70.9473-9.91211 69.8242-9.91211L59.8633-9.91211L59.8633-16.2109C69.5801-17.1387 76.1719-24.4141 76.1719-34.082L76.1719-39.8926C76.1719-41.0156 75.1953-41.9922 74.0234-41.9922C72.9004-41.9922 71.875-41.0156 71.875-39.8926L71.875-34.082C71.875-25.8301 66.2598-20.2148 57.666-20.2148C49.1211-20.2148 43.5059-25.8301 43.5059-34.082L43.5059-39.8926C43.5059-41.0156 42.5293-41.9922 41.3574-41.9922C40.2344-41.9922 39.2578-41.0156 39.2578-39.8926L39.2578-34.082C39.2578-24.4141 45.8496-17.1387 55.5176-16.2109L55.5176-9.91211L45.6055-9.91211C44.4336-9.91211 43.4082-8.88672 43.4082-7.71484C43.4082-6.54297 44.4336-5.56641 45.6055-5.56641Z"/>
  </g>
 </g>
</svg>
