<?xml version="1.0" encoding="UTF-8"?>
<!--Generator: Apple Native CoreSVG 149-->
<!DOCTYPE svg
PUBLIC "-//W3C//DTD SVG 1.1//EN"
       "http://www.w3.org/Graphics/SVG/1.1/DTD/svg11.dtd">
<svg version="1.1" xmlns="http://www.w3.org/2000/svg" xmlns:xlink="http://www.w3.org/1999/xlink" width="124" height="128">
 <!--glyph: "uni1002F1.medium", point size: 100.000000, font version: "Version 16.0d18e1", template writer version: "8"-->
 <g id="Symbols">
  <g id="Regular-M" transform="matrix(1 0 0 1 0 100)">
   <path d="M17.2852-59.8633L25.6348-59.8633C28.3203-59.8633 30.5176-62.0605 30.5176-64.6973C30.5176-67.4316 28.3203-69.5801 25.6348-69.5801L17.2852-69.5801C14.5996-69.5801 12.4512-67.4316 12.4512-64.6973C12.4512-62.0605 14.5996-59.8633 17.2852-59.8633ZM45.0684-60.791L106.885-60.791C109.082-60.791 110.84-62.5 110.84-64.6973C110.84-66.9434 109.082-68.6523 106.885-68.6523L45.0684-68.6523C42.8223-68.6523 41.1133-66.9434 41.1133-64.6973C41.1133-62.5 42.8223-60.791 45.0684-60.791ZM17.2852-30.3223L25.6348-30.3223C28.3203-30.3223 30.5176-32.5195 30.5176-35.2051C30.5176-37.8906 28.3203-40.0391 25.6348-40.0391L17.2852-40.0391C14.5996-40.0391 12.4512-37.8906 12.4512-35.2051C12.4512-32.5195 14.5996-30.3223 17.2852-30.3223ZM45.0684-31.25L106.885-31.25C109.082-31.25 110.84-33.0078 110.84-35.2051C110.84-37.4023 109.082-39.1113 106.885-39.1113L45.0684-39.1113C42.8223-39.1113 41.1133-37.4023 41.1133-35.2051C41.1133-33.0078 42.8223-31.25 45.0684-31.25ZM17.2852-0.830078L25.6348-0.830078C28.3203-0.830078 30.5176-3.02734 30.5176-5.66406C30.5176-8.39844 28.3203-10.5469 25.6348-10.5469L17.2852-10.5469C14.5996-10.5469 12.4512-8.39844 12.4512-5.66406C12.4512-3.02734 14.5996-0.830078 17.2852-0.830078ZM45.0684-1.75781L106.885-1.75781C109.082-1.75781 110.84-3.4668 110.84-5.66406C110.84-7.91016 109.082-9.61914 106.885-9.61914L45.0684-9.61914C42.8223-9.61914 41.1133-7.91016 41.1133-5.66406C41.1133-3.4668 42.8223-1.75781 45.0684-1.75781Z"/>
  </g>
 </g>
</svg>
