<?xml version="1.0" encoding="UTF-8"?>
<!--Generator: Apple Native CoreSVG 175-->
<!DOCTYPE svg
PUBLIC "-//W3C//DTD SVG 1.1//EN"
       "http://www.w3.org/Graphics/SVG/1.1/DTD/svg11.dtd">
<svg version="1.1" xmlns="http://www.w3.org/2000/svg" xmlns:xlink="http://www.w3.org/1999/xlink" width="118" height="128">
 <g id="Symbols">
  <g id="Regular-M" transform="matrix(1 0 0 1 0 100)">
   <path d="M12.4023-44.043Q10.3516-43.1152 9.35059-41.6016Q8.34961-40.0879 8.25195-38.4277Q8.1543-36.7676 8.91113-35.2783Q9.66797-33.7891 11.2061-32.8369Q12.7441-31.8848 14.9414-31.8359L50.5371-31.6895Q50.9766-31.6895 51.123-31.543Q51.2695-31.3965 51.2695-30.957L51.3672 4.3457Q51.3672 6.64062 52.3438 8.17871Q53.3203 9.7168 54.834 10.4004Q56.3477 11.084 58.0811 10.9131Q59.8145 10.7422 61.3525 9.59473Q62.8906 8.44727 63.8672 6.34766L99.9512-71.2402Q101.172-73.9258 100.879-76.123Q100.586-78.3203 99.1211-79.6875Q97.6562-81.0547 95.3857-81.2744Q93.1152-81.4941 90.4297-80.2246ZM20.8984-39.4531Q20.752-39.4531 20.7275-39.5508Q20.7031-39.6484 20.8984-39.7461L91.0645-71.875Q91.3086-71.9727 91.4062-71.8994Q91.5039-71.8262 91.4062-71.5332L59.082-1.41602Q59.0332-1.26953 58.9355-1.29395Q58.8379-1.31836 58.8379-1.46484L59.082-35.9863Q59.082-37.5977 58.0566-38.623Q57.0312-39.6484 55.3711-39.6484Z"/>
  </g>
 </g>
</svg>
