<?xml version="1.0" encoding="UTF-8"?>
<!--Generator: Apple Native CoreSVG 149-->
<!DOCTYPE svg
PUBLIC "-//W3C//DTD SVG 1.1//EN"
       "http://www.w3.org/Graphics/SVG/1.1/DTD/svg11.dtd">
<svg version="1.1" xmlns="http://www.w3.org/2000/svg" xmlns:xlink="http://www.w3.org/1999/xlink" width="124" height="128">
 <!--glyph: "uni1003A5.medium", point size: 100.000000, font version: "Version 16.0d18e1", template writer version: "8"-->
 <g id="Symbols">
  <g id="Regular-M" transform="matrix(1 0 0 1 0 100)">
   <path d="M21.8262 10.9863L68.3105 10.9863C74.6094 10.9863 77.6855 7.86133 77.6855 1.02539L77.6855-34.8145C77.6855-40.7715 75.293-43.9453 70.459-44.6289L70.459-58.0078C70.459-70.2637 78.3203-76.7578 87.4512-76.7578C96.582-76.7578 104.395-70.2637 104.395-58.0078L104.395-47.168C104.395-44.1895 106.152-42.7246 108.398-42.7246C110.547-42.7246 112.256-44.043 112.256-47.168L112.256-56.9824C112.256-75.3906 100.195-84.2773 87.4512-84.2773C74.6582-84.2773 62.5977-75.3906 62.5977-56.9824L62.5977-44.7266L22.8027-44.6289C16.5039-44.6289 12.4512-41.5527 12.4512-34.8145L12.4512 1.02539C12.4512 7.86133 15.5273 10.9863 21.8262 10.9863Z"/>
  </g>
 </g>
</svg>
