<?xml version="1.0" encoding="UTF-8"?>
<!--Generator: Apple Native CoreSVG 149-->
<!DOCTYPE svg
PUBLIC "-//W3C//DTD SVG 1.1//EN"
       "http://www.w3.org/Graphics/SVG/1.1/DTD/svg11.dtd">
<svg version="1.1" xmlns="http://www.w3.org/2000/svg" xmlns:xlink="http://www.w3.org/1999/xlink" width="118" height="128">
 <g id="Symbols">
  <g id="Regular-M" transform="matrix(1 0 0 1 0 100)">
   <path d="M58.5449 14.5508C85.791 14.5508 108.35-8.05664 108.35-35.2539C108.35-62.5 85.7422-85.0586 58.4961-85.0586C31.2988-85.0586 8.74023-62.5 8.74023-35.2539C8.74023-8.05664 31.3477 14.5508 58.5449 14.5508ZM58.5449 6.25C35.498 6.25 17.0898-12.207 17.0898-35.2539C17.0898-58.3008 35.4492-76.7578 58.4961-76.7578C81.543-76.7578 100-58.3008 100.049-35.2539C100.098-12.207 81.5918 6.25 58.5449 6.25ZM58.5449-60.1074C56.4453-60.1074 54.8828-58.5938 54.8828-56.4453L54.8828-32.0312L55.2734-21.7285L50.3906-27.5879L44.5801-33.4473C43.8965-34.082 43.0176-34.5215 41.9922-34.5215C39.9902-34.5215 38.4766-32.959 38.4766-31.0059C38.4766-29.9805 38.7695-29.1016 39.4043-28.4668L55.7129-12.207C56.6895-11.2305 57.5195-10.8398 58.5449-10.8398C59.6191-10.8398 60.498-11.2793 61.4258-12.207L77.6855-28.4668C78.3203-29.1016 78.7109-29.9805 78.7109-31.0059C78.7109-32.959 77.1484-34.5215 75.1465-34.5215C74.0723-34.5215 73.1934-34.1309 72.5586-33.4473L66.7969-27.5879L61.8164-21.6797L62.207-32.0312L62.207-56.4453C62.207-58.5938 60.6934-60.1074 58.5449-60.1074Z"/>
  </g>
 </g>
</svg>
