<?xml version="1.0" encoding="UTF-8"?>
<!--Generator: Apple Native CoreSVG 149-->
<!DOCTYPE svg
PUBLIC "-//W3C//DTD SVG 1.1//EN"
       "http://www.w3.org/Graphics/SVG/1.1/DTD/svg11.dtd">
<svg version="1.1" xmlns="http://www.w3.org/2000/svg" xmlns:xlink="http://www.w3.org/1999/xlink" width="120" height="128">
 <!--glyph: "uni100177.medium", point size: 100.000000, font version: "Version 16.0d18e1", template writer version: "8"-->
 <g id="Symbols">
  <g id="Regular-M" transform="matrix(1 0 0 1 0 100)">
   <path d="M8.74023-32.959C8.74023-0.78125 30.5176 18.75 60.498 18.75C68.6035 18.75 76.3184 17.627 81.1035 16.0645C84.4727 14.9902 85.5469 13.2324 85.5469 11.4258C85.5469 9.61914 84.1309 8.25195 82.3242 8.25195C81.7383 8.25195 80.957 8.34961 80.0293 8.59375C74.0723 10.0586 68.9453 11.0352 62.0605 11.0352C35.3516 11.0352 17.1387-5.07812 17.1387-32.666C17.1387-59.082 34.3262-77.4902 60.2051-77.4902C83.1055-77.4902 102.246-63.3789 102.246-38.0371C102.246-23.2422 97.2656-13.2812 89.209-13.2812C83.8379-13.2812 80.8105-16.4062 80.8105-21.7285L80.8105-54.834C80.8105-57.4707 79.3457-59.082 76.8555-59.082C74.4141-59.082 72.9004-57.4707 72.9004-54.834L72.9004-49.2676L72.4609-49.2676C69.9707-55.2734 63.8672-59.082 56.5918-59.082C43.9453-59.082 35.0586-48.291 35.0586-32.8125C35.0586-17.1875 43.8965-6.29883 56.7871-6.29883C64.3555-6.29883 70.2148-10.4004 73.0469-17.334L73.4863-17.334C74.4141-10.4492 80.2246-6.25 87.9395-6.25C101.562-6.25 110.01-19.6289 110.01-38.3789C110.01-66.748 89.1602-85.1562 60.3027-85.1562C29.9805-85.1562 8.74023-64.4043 8.74023-32.959ZM58.1055-14.0137C49.3652-14.0137 43.7988-21.2891 43.7988-32.8613C43.7988-44.2383 49.4141-51.5137 58.1543-51.5137C67.1387-51.5137 72.8027-44.3848 72.8027-33.0566C72.8027-21.4844 66.9922-14.0137 58.1055-14.0137Z"/>
  </g>
 </g>
</svg>
