<?xml version="1.0" encoding="UTF-8"?>
<!--Generator: Apple Native CoreSVG 149-->
<!DOCTYPE svg
PUBLIC "-//W3C//DTD SVG 1.1//EN"
       "http://www.w3.org/Graphics/SVG/1.1/DTD/svg11.dtd">
<svg version="1.1" xmlns="http://www.w3.org/2000/svg" xmlns:xlink="http://www.w3.org/1999/xlink" width="140" height="128">
 <!--glyph: "uni10090A.medium", point size: 100.000000, font version: "Version 16.0d18e1", template writer version: "8"-->
 <g id="Symbols">
  <g id="Regular-M" transform="matrix(1 0 0 1 0 100)">
   <path d="M20.0684 17.1387C28.5645 25.5371 39.9414 25.6348 48.291 17.2363C56.2012 9.22852 57.2266 0.439453 71.0449-17.3828L92.3828 3.90625L93.0664 8.30078C93.3105 10.0586 94.4336 11.6211 95.8984 12.5977L111.182 22.9492C112.744 23.9746 114.258 23.9746 115.332 22.9004L124.072 14.1602C125.098 13.0859 124.951 11.5234 123.975 10.0098L113.77-5.22461C112.744-6.73828 111.182-7.8125 109.424-8.05664L105.029-8.74023L82.7148-31.0547C84.7168-33.2031 86.8164-35.4492 89.1602-37.793C99.6094-32.8613 112.256-34.5215 120.654-42.8711C129.443-51.6602 130.957-65.5273 124.414-76.7578L119.678-71.9727L111.133-63.4766C109.814-62.1582 108.154-62.0605 106.738-63.4766L100.781-69.4824C99.3652-70.9473 99.2188-72.6562 100.537-73.9746L109.082-82.4219L113.867-87.207C102.734-93.7012 88.916-92.2363 80.127-83.3984C72.3145-75.5859 70.3125-64.1113 74.0723-54.1016L44.8242-83.5449C37.9395-90.3809 30.6152-90.3809 23.9258-83.6914L17.4316-77.1973C10.7422-70.5078 10.7422-63.1836 17.5781-56.3477L46.1914-27.7832C33.7402-19.4824 26.5625-17.6758 19.9707-11.1328C11.5234-2.7832 11.6211 8.64258 20.0684 17.1387ZM95.6055-65.5762L102.832-58.3984C106.445-54.7852 111.084-54.6875 114.502-58.1543L121.729-65.4297C122.754-58.8379 120.801-52.1973 116.064-47.4121C107.812-39.1602 94.1406-39.5508 85.4004-48.1934C76.709-56.8848 76.3672-70.6543 84.668-78.8574C89.4043-83.5449 96.0449-85.5469 102.49-84.5703L95.3613-77.3926C91.748-73.8281 91.8457-69.2383 95.6055-65.5762ZM21.9727-61.4258C18.4082-64.9902 18.457-68.7012 21.9727-72.2656L28.8574-79.1992C32.3242-82.7148 36.1328-82.666 39.6973-79.1504L70.8984-47.9492C63.3789-40.8691 57.0801-35.6445 51.6113-31.6406ZM52.4902-52.002C53.1738-51.2695 54.4434-51.3672 55.0781-52.002C55.8105-52.832 55.8105-53.9551 55.127-54.6387L36.8652-72.8516C36.1328-73.584 34.9609-73.5352 34.3262-72.8516C33.5938-72.1191 33.6426-70.9961 34.3262-70.3125ZM46.4844-46.0449C47.2168-45.3125 48.3887-45.3125 49.0723-46.0449C49.7559-46.7285 49.8047-47.8516 49.0723-48.584L30.8105-66.8457C30.1758-67.4316 28.9551-67.5293 28.2227-66.8457C27.5391-66.0645 27.4902-64.8926 28.2227-64.209ZM80.8105-43.6523C81.7871-42.7246 82.7637-41.7969 83.8379-41.0156C50.0488-6.34766 55.0781 0.634766 43.3105 12.3535C37.8906 17.8223 30.5664 17.8711 24.9023 12.3047C19.2871 6.5918 19.3848-0.683594 24.7559-6.10352C36.5723-17.8711 43.5547-12.8418 78.2227-46.6309C79.0039-45.6055 79.8828-44.6289 80.8105-43.6523ZM100.195 6.54297L99.2188 1.07422L75.3906-22.7539C76.2695-23.7793 77.1484-24.8535 78.125-25.9277L102.197-1.9043L107.666-0.976562L116.992 11.4258L112.549 15.8691ZM33.9844 9.375C37.3047 9.375 40.0391 6.64062 40.0391 3.32031C40.0391 0 37.3047-2.68555 33.9844-2.68555C30.6641-2.68555 27.9785 0 27.9785 3.32031C27.9785 6.64062 30.6641 9.375 33.9844 9.375Z"/>
  </g>
 </g>
</svg>
