<?xml version="1.0" encoding="UTF-8"?>
<!--Generator: Apple Native CoreSVG 175-->
<!DOCTYPE svg
PUBLIC "-//W3C//DTD SVG 1.1//EN"
       "http://www.w3.org/Graphics/SVG/1.1/DTD/svg11.dtd">
<svg version="1.1" xmlns="http://www.w3.org/2000/svg" xmlns:xlink="http://www.w3.org/1999/xlink" width="118" height="128">
 <g id="Symbols">
  <g id="Regular-M" transform="matrix(1 0 0 1 0 100)">
   <path d="M28.418-35.2051Q28.418-39.2578 25.5371-42.1143Q22.6562-44.9707 18.5059-44.9707Q15.8203-44.9707 13.5986-43.6523Q11.377-42.334 10.0586-40.1123Q8.74023-37.8906 8.74023-35.2051Q8.74023-32.4707 10.0586-30.2734Q11.377-28.0762 13.5986-26.7578Q15.8203-25.4395 18.5059-25.4395Q21.2891-25.4395 23.5107-26.7578Q25.7324-28.0762 27.0752-30.2734Q28.418-32.4707 28.418-35.2051ZM64.5508-35.2051Q64.5508-39.2578 61.6943-42.1143Q58.8379-44.9707 54.7852-44.9707Q52.0996-44.9707 49.8779-43.6523Q47.6562-42.334 46.3623-40.1123Q45.0684-37.8906 45.0684-35.2051Q45.0684-32.4707 46.3623-30.2734Q47.6562-28.0762 49.8779-26.7578Q52.0996-25.4395 54.7852-25.4395Q57.5195-25.4395 59.7168-26.7578Q61.9141-28.0762 63.2324-30.2734Q64.5508-32.4707 64.5508-35.2051ZM100.83-35.2051Q100.83-39.2578 97.9736-42.1143Q95.1172-44.9707 91.0645-44.9707Q88.3301-44.9707 86.084-43.6523Q83.8379-42.334 82.5195-40.1123Q81.2012-37.8906 81.2012-35.2051Q81.2012-32.4707 82.5195-30.2734Q83.8379-28.0762 86.084-26.7578Q88.3301-25.4395 91.0645-25.4395Q93.75-25.4395 95.9717-26.7578Q98.1934-28.0762 99.5117-30.2734Q100.83-32.4707 100.83-35.2051Z"/>
  </g>
 </g>
</svg>
