<?xml version="1.0" encoding="UTF-8"?>
<!--Generator: Apple Native CoreSVG 149-->
<!DOCTYPE svg
PUBLIC "-//W3C//DTD SVG 1.1//EN"
       "http://www.w3.org/Graphics/SVG/1.1/DTD/svg11.dtd">
<svg version="1.1" xmlns="http://www.w3.org/2000/svg" xmlns:xlink="http://www.w3.org/1999/xlink" width="116" height="128">
 <!--glyph: "uni1004B2.medium", point size: 100.000000, font version: "Version 16.0d18e1", template writer version: "8"-->
 <g id="Symbols">
  <g id="Light-M" transform="matrix(1 0 0 1 0 100)">
   <path d="M57.7148 13.7207C84.5215 13.7207 106.689-8.44727 106.689-35.2539C106.689-62.1094 84.5215-84.2285 57.666-84.2285C30.8594-84.2285 8.74023-62.1094 8.74023-35.2539C8.74023-8.44727 30.9082 13.7207 57.7148 13.7207ZM57.7148 7.37305C34.082 7.37305 15.0879-11.6699 15.0879-35.2539C15.0879-58.8867 34.082-77.9297 57.666-77.9297C81.2988-77.9297 100.342-58.8867 100.391-35.2539C100.391-11.6699 81.3477 7.37305 57.7148 7.37305ZM39.9414-16.4062C39.9414-12.5977 41.6504-10.8887 45.1172-10.8887L70.2637-10.8887C73.7305-10.8887 75.3906-12.5977 75.3906-16.4062L75.3906-36.2305C75.3906-39.8438 73.877-41.5527 70.7031-41.6992L70.7031-47.998C70.7031-56.5918 65.4785-62.3535 57.666-62.3535C49.9023-62.3535 44.6777-56.5918 44.6777-47.998L44.6777-41.6992C41.5039-41.5527 39.9414-39.8438 39.9414-36.2305ZM48.877-41.6992L48.877-48.3398C48.877-54.2969 52.3926-58.252 57.666-58.252C62.9883-58.252 66.5039-54.2969 66.5039-48.3398L66.5039-41.6992Z"/>
  </g>
 </g>
</svg>
