<?xml version="1.0" encoding="UTF-8"?>
<!--Generator: Apple Native CoreSVG 149-->
<!DOCTYPE svg
PUBLIC "-//W3C//DTD SVG 1.1//EN"
       "http://www.w3.org/Graphics/SVG/1.1/DTD/svg11.dtd">
<svg version="1.1" xmlns="http://www.w3.org/2000/svg" xmlns:xlink="http://www.w3.org/1999/xlink" width="118" height="128">
 <!--glyph: "uni1004B2.medium", point size: 100.000000, font version: "Version 16.0d18e1", template writer version: "8"-->
 <g id="Symbols">
  <g id="Regular-M" transform="matrix(1 0 0 1 0 100)">
   <path d="M58.5449 14.5508C85.791 14.5508 108.35-8.05664 108.35-35.2539C108.35-62.5 85.7422-85.0586 58.4961-85.0586C31.2988-85.0586 8.74023-62.5 8.74023-35.2539C8.74023-8.05664 31.3477 14.5508 58.5449 14.5508ZM58.5449 6.25C35.498 6.25 17.0898-12.207 17.0898-35.2539C17.0898-58.3008 35.4492-76.7578 58.4961-76.7578C81.543-76.7578 100-58.3008 100.049-35.2539C100.098-12.207 81.5918 6.25 58.5449 6.25ZM40.8691-16.6016C40.8691-12.9395 42.4805-11.2305 45.8496-11.2305L71.1426-11.2305C74.5117-11.2305 76.123-12.9395 76.123-16.6016L76.123-36.0352C76.123-39.4531 74.707-41.1621 71.8262-41.3574L71.8262-47.1191C71.8262-56.1035 66.4551-62.1094 58.4961-62.1094C50.5371-62.1094 45.166-56.1035 45.166-47.1191L45.166-41.3574C42.2852-41.1621 40.8691-39.4531 40.8691-36.0352ZM50.2441-41.4062L50.2441-47.6562C50.2441-53.3691 53.5645-57.1777 58.4961-57.1777C63.4277-57.1777 66.748-53.3691 66.748-47.6562L66.748-41.4062Z"/>
  </g>
 </g>
</svg>
