<?xml version="1.0" encoding="UTF-8"?>
<!--Generator: Apple Native CoreSVG 149-->
<!DOCTYPE svg
PUBLIC "-//W3C//DTD SVG 1.1//EN"
       "http://www.w3.org/Graphics/SVG/1.1/DTD/svg11.dtd">
<svg version="1.1" xmlns="http://www.w3.org/2000/svg" xmlns:xlink="http://www.w3.org/1999/xlink" width="113" height="128">
 <!--glyph: "uni10033F.medium", point size: 100.000000, font version: "Version 16.0d18e1", template writer version: "8"-->
 <g id="Symbols">
  <g id="Regular-M" transform="matrix(1 0 0 1 0 100)">
   <path d="M36.0352-13.1348C50.1465 0.976562 67.2852 11.8652 81.2988 11.8652C87.5977 11.8652 93.1152 9.66797 97.5586 4.78516C100.146 1.9043 101.758-1.46484 101.758-4.78516C101.758-7.22656 100.83-9.57031 98.5352-11.2305L83.5449-21.875C81.25-23.4375 79.3457-24.2188 77.5879-24.2188C75.3906-24.2188 73.3887-22.9492 71.1426-20.752L67.6758-17.334C67.1387-16.7969 66.4551-16.5527 65.8203-16.5527C65.0879-16.5527 64.3555-16.8457 63.8672-17.0898C60.8398-18.7012 55.6641-23.1445 50.8301-27.9297C46.0449-32.7148 41.6016-37.8906 40.0391-40.918C39.7949-41.4551 39.502-42.1387 39.502-42.8711C39.502-43.5059 39.6973-44.1406 40.2344-44.6777L43.7012-48.2422C45.8496-50.4883 47.168-52.4414 47.168-54.6875C47.168-56.4453 46.3379-58.3496 44.7266-60.6445L34.2285-75.4395C32.5195-77.7832 30.127-78.8086 27.4902-78.8086C24.2676-78.8086 20.9473-77.3438 18.0664-74.5605C13.3301-70.0195 11.2305-64.4043 11.2305-58.2031C11.2305-44.1895 21.9238-27.1973 36.0352-13.1348Z"/>
  </g>
 </g>
</svg>
