<?xml version="1.0" encoding="UTF-8"?>
<!--Generator: Apple Native CoreSVG 149-->
<!DOCTYPE svg
PUBLIC "-//W3C//DTD SVG 1.1//EN"
       "http://www.w3.org/Graphics/SVG/1.1/DTD/svg11.dtd">
<svg version="1.1" xmlns="http://www.w3.org/2000/svg" xmlns:xlink="http://www.w3.org/1999/xlink" width="105" height="128">
 <!--glyph: "uni1003A1.medium", point size: 100.000000, font version: "Version 16.0d18e1", template writer version: "8"-->
 <g id="Symbols">
  <g id="Regular-M" transform="matrix(1 0 0 1 0 100)">
   <path d="M29.9805 10.9863L76.4648 10.9863C82.7637 10.9863 85.8398 7.86133 85.8398 1.02539L85.8398-34.8145C85.8398-40.9668 83.3008-44.1406 78.0762-44.6777L78.0762-56.9824C78.0762-75.3906 66.0156-84.2773 53.2227-84.2773C40.4297-84.2773 28.3691-75.3906 28.3691-56.9824L28.3691-44.4336C23.584-43.7012 20.6055-40.5762 20.6055-34.8145L20.6055 1.02539C20.6055 7.86133 23.6816 10.9863 29.9805 10.9863ZM36.2305-58.0078C36.2305-70.2637 44.0918-76.7578 53.2227-76.7578C62.3535-76.7578 70.2148-70.2637 70.2148-58.0078L70.2148-44.7266L36.2305-44.6777Z"/>
  </g>
 </g>
</svg>
