<?xml version="1.0" encoding="UTF-8"?>
<!--Generator: Apple Native CoreSVG 149-->
<!DOCTYPE svg
PUBLIC "-//W3C//DTD SVG 1.1//EN"
       "http://www.w3.org/Graphics/SVG/1.1/DTD/svg11.dtd">
<svg version="1.1" xmlns="http://www.w3.org/2000/svg" xmlns:xlink="http://www.w3.org/1999/xlink" width="128" height="128">
 <!--glyph: "uni100061.medium", point size: 100.000000, font version: "Version 16.0d18e1", template writer version: "8"-->
 <g id="Guides">
  <g id="Regular-M" transform="matrix(1 0 0 1 5 100)">
   <path d="M58.5449 14.5508C85.791 14.5508 108.35-8.05664 108.35-35.2539C108.35-62.5 85.7422-85.0586 58.4961-85.0586C31.2988-85.0586 8.74023-62.5 8.74023-35.2539C8.74023-8.05664 31.3477 14.5508 58.5449 14.5508ZM41.3086-13.9648C39.1113-13.9648 37.3047-15.8203 37.3047-18.0664C37.3047-19.1406 37.7441-20.1172 38.4766-20.8984L52.7832-35.2051L38.4766-49.5117C37.7441-50.293 37.3047-51.2695 37.3047-52.3438C37.3047-54.5898 39.1113-56.3477 41.3086-56.3477C42.4805-56.3477 43.4082-55.957 44.1406-55.1758L58.4961-40.8691L72.998-55.2246C73.8281-56.0547 74.707-56.4453 75.7812-56.4453C77.9785-56.4453 79.7852-54.6387 79.7852-52.4414C79.7852-51.3184 79.4434-50.4395 78.6133-49.5605L64.2578-35.2051L78.5645-20.9473C79.3457-20.1172 79.7363-19.1895 79.7363-18.0664C79.7363-15.8203 77.9297-13.9648 75.6836-13.9648C74.5605-13.9648 73.584-14.4531 72.8027-15.1855L58.4961-29.4922L44.2871-15.1855C43.5059-14.4043 42.4805-13.9648 41.3086-13.9648Z"/>
  </g>
 </g>
</svg>
