<?xml version="1.0" encoding="UTF-8"?>
<!--Generator: Apple Native CoreSVG 149-->
<!DOCTYPE svg
PUBLIC "-//W3C//DTD SVG 1.1//EN"
       "http://www.w3.org/Graphics/SVG/1.1/DTD/svg11.dtd">
<svg version="1.1" xmlns="http://www.w3.org/2000/svg" xmlns:xlink="http://www.w3.org/1999/xlink" width="118" height="128">
 <g id="Symbols">
  <g id="Regular-M" transform="matrix(1 0 0 1 0 100)">
   <path d="M68.6035 18.2617C72.1191 18.2617 74.6094 15.2344 76.416 10.5469L108.398-72.998C109.277-75.2441 109.766-77.2461 109.766-78.9062C109.766-82.0801 107.812-84.0332 104.639-84.0332C102.979-84.0332 100.977-83.5449 98.7305-82.666L14.7461-50.4883C10.6445-48.9258 7.4707-46.4355 7.4707-42.8711C7.4707-38.3789 10.8887-36.8652 15.5762-35.4492L41.9434-27.4414C45.0684-26.4648 46.8262-26.5625 48.9258-28.5156L102.49-78.5645C103.125-79.1504 103.857-79.0527 104.346-78.6133C104.834-78.125 104.883-77.3926 104.297-76.7578L54.4434-22.998C52.5391-20.9961 52.3926-19.3359 53.3203-16.0645L61.084 9.7168C62.5488 14.6484 64.0625 18.2617 68.6035 18.2617Z"/>
  </g>
 </g>
</svg>
