<?xml version="1.0" encoding="UTF-8"?>
<!--Generator: Apple Native CoreSVG 149-->
<!DOCTYPE svg
PUBLIC "-//W3C//DTD SVG 1.1//EN"
       "http://www.w3.org/Graphics/SVG/1.1/DTD/svg11.dtd">
<svg version="1.1" xmlns="http://www.w3.org/2000/svg" xmlns:xlink="http://www.w3.org/1999/xlink" width="122" height="128">
 <!--glyph: "uni1008CB.medium", point size: 100.000000, font version: "Version 16.0d18e1", template writer version: "8"-->
 <g id="Symbols">
  <g id="Regular-M" transform="matrix(1 0 0 1 0 100)">
   <path d="M56.0547 16.9434L65.918 16.9434C69.6777 16.9434 72.5586 14.6484 73.4375 11.0352L75.5371 1.9043L77.0996 1.36719L85.0586 6.25C88.2324 8.25195 91.8945 7.76367 94.5801 5.07812L101.416-1.70898C104.102-4.39453 104.59-8.10547 102.588-11.2305L97.6074-19.1406L98.1934-20.6055L107.324-22.7539C110.889-23.6328 113.232-26.5625 113.232-30.2734L113.232-39.9414C113.232-43.6523 110.938-46.582 107.324-47.4609L98.291-49.6582L97.6562-51.2207L102.637-59.1309C104.639-62.2559 104.15-65.918 101.465-68.6523L94.6289-75.4883C91.9922-78.125 88.3301-78.6133 85.1562-76.6602L77.1973-71.7773L75.5371-72.4121L73.4375-81.543C72.5586-85.1562 69.6777-87.4512 65.918-87.4512L56.0547-87.4512C52.2949-87.4512 49.4141-85.1562 48.5352-81.543L46.3867-72.4121L44.7266-71.7773L36.8164-76.6602C33.6426-78.6133 29.9316-78.125 27.2949-75.4883L20.5078-68.6523C17.8223-65.918 17.2852-62.2559 19.3359-59.1309L24.2676-51.2207L23.6816-49.6582L14.6484-47.4609C11.0352-46.582 8.74023-43.6523 8.74023-39.9414L8.74023-30.2734C8.74023-26.5625 11.084-23.6328 14.6484-22.7539L23.7793-20.6055L24.3164-19.1406L19.3848-11.2305C17.334-8.10547 17.8711-4.39453 20.5566-1.70898L27.3438 5.07812C30.0293 7.76367 33.7402 8.25195 36.9141 6.25L44.8242 1.36719L46.3867 1.9043L48.5352 11.0352C49.4141 14.6484 52.2949 16.9434 56.0547 16.9434ZM56.8359 9.32617C56.0059 9.32617 55.5664 8.98438 55.4199 8.20312L52.4902-3.90625C49.5117-4.63867 46.7285-5.81055 44.6289-7.12891L33.9844-0.585938C33.3984-0.146484 32.7637-0.244141 32.1777-0.830078L26.416-6.5918C25.8789-7.12891 25.8301-7.71484 26.2207-8.39844L32.7637-18.9453C31.6406-20.9961 30.3711-23.7793 29.5898-26.7578L17.4805-29.6387C16.6992-29.7852 16.3574-30.2246 16.3574-31.0547L16.3574-39.209C16.3574-40.0879 16.6504-40.4785 17.4805-40.625L29.541-43.5547C30.3223-46.7285 31.7871-49.6094 32.666-51.416L26.1719-61.9629C25.7324-62.6953 25.7812-63.2812 26.3184-63.8672L32.1289-69.5312C32.7148-70.1172 33.252-70.2148 33.9844-69.7754L44.5312-63.3789C46.6309-64.5508 49.6094-65.7715 52.5391-66.6016L55.4199-78.7109C55.5664-79.4922 56.0059-79.834 56.8359-79.834L65.1367-79.834C65.9668-79.834 66.4062-79.4922 66.5039-78.7109L69.4824-66.5039C72.5098-65.7227 75.1465-64.502 77.3438-63.3301L87.9395-69.7754C88.7207-70.2148 89.209-70.1172 89.8438-69.5312L95.6055-63.8672C96.1914-63.2812 96.1914-62.6953 95.752-61.9629L89.2578-51.416C90.1855-49.6094 91.6016-46.7285 92.3828-43.5547L104.492-40.625C105.273-40.4785 105.615-40.0879 105.615-39.209L105.615-31.0547C105.615-30.2246 105.225-29.7852 104.492-29.6387L92.334-26.7578C91.5527-23.7793 90.332-20.9961 89.1602-18.9453L95.7031-8.39844C96.0938-7.71484 96.0938-7.12891 95.5078-6.5918L89.7949-0.830078C89.1602-0.244141 88.5742-0.146484 87.9395-0.585938L77.2949-7.12891C75.1953-5.81055 72.4609-4.63867 69.4824-3.90625L66.5039 8.20312C66.4062 8.98438 65.9668 9.32617 65.1367 9.32617ZM60.9863-16.6016C71.1914-16.6016 79.5898-25 79.5898-35.2539C79.5898-45.4102 71.1914-53.8086 60.9863-53.8086C50.7812-53.8086 42.334-45.4102 42.334-35.2539C42.334-25.0488 50.7324-16.6016 60.9863-16.6016ZM60.9863-24.1699C54.9316-24.1699 49.9512-29.1504 49.9512-35.2539C49.9512-41.2598 54.9316-46.2402 60.9863-46.2402C66.9434-46.2402 71.9238-41.2598 71.9238-35.2539C71.9238-29.1992 66.9434-24.1699 60.9863-24.1699Z"/>
  </g>
 </g>
</svg>
