<?xml version="1.0" encoding="UTF-8"?>
<!--Generator: Apple Native CoreSVG 149-->
<!DOCTYPE svg
PUBLIC "-//W3C//DTD SVG 1.1//EN"
       "http://www.w3.org/Graphics/SVG/1.1/DTD/svg11.dtd">
<svg version="1.1" xmlns="http://www.w3.org/2000/svg" xmlns:xlink="http://www.w3.org/1999/xlink" width="118" height="128">
 <g id="Symbols">
  <g id="Regular-M" transform="matrix(1 0 0 1 0 100)">
   <path d="M58.5449 14.5508C85.791 14.5508 108.35-8.05664 108.35-35.2539C108.35-62.5 85.7422-85.0586 58.4961-85.0586C31.2988-85.0586 8.74023-62.5 8.74023-35.2539C8.74023-8.05664 31.3477 14.5508 58.5449 14.5508ZM58.5449 6.25C35.498 6.25 17.0898-12.207 17.0898-35.2539C17.0898-58.3008 35.4492-76.7578 58.4961-76.7578C81.543-76.7578 100-58.3008 100.049-35.2539C100.098-12.207 81.5918 6.25 58.5449 6.25ZM40.7227-22.2656C40.7227-19.2383 42.5781-17.4316 45.6055-17.4316L71.3867-17.4316C74.4629-17.4316 76.2695-19.2383 76.2695-22.2656L76.2695-48.2422C76.2695-51.2207 74.4629-53.0273 71.3867-53.0273L45.6055-53.0273C42.5781-53.0273 40.7227-51.2207 40.7227-48.2422Z"/>
  </g>
 </g>
</svg>
