<?xml version="1.0" encoding="UTF-8"?>
<!--Generator: Apple Native CoreSVG 149-->
<!DOCTYPE svg
PUBLIC "-//W3C//DTD SVG 1.1//EN"
       "http://www.w3.org/Graphics/SVG/1.1/DTD/svg11.dtd">
<svg version="1.1" xmlns="http://www.w3.org/2000/svg" xmlns:xlink="http://www.w3.org/1999/xlink" width="118" height="128">
 <g id="Symbols">
  <g id="Light-M" transform="matrix(1 0 0 1 0 100)">
   <path d="M30.3711 11.4746C32.0312 12.6953 34.0332 12.3535 36.5723 10.498L63.1836-8.98438L89.7949 10.498C92.2852 12.3535 94.3359 12.6953 95.9473 11.4746C97.6074 10.2539 97.998 8.25195 96.9727 5.27344L86.5723-25.9766L113.379-45.2637C115.918-47.0703 116.797-48.9258 116.162-50.8789C115.527-52.7832 113.721-53.7598 110.596-53.7598L77.6855-53.5645L67.627-84.9609C66.6504-87.9883 65.1855-89.4043 63.1836-89.4043C61.1328-89.4043 59.7168-87.9883 58.7402-84.9609L48.6816-53.5645L15.7715-53.7598C12.5977-53.7598 10.791-52.7832 10.1562-50.8789C9.52148-48.9258 10.4492-47.0703 12.9883-45.2637L39.7461-25.9766L29.3945 5.27344C28.3691 8.25195 28.7598 10.2539 30.3711 11.4746ZM35.5957 4.29688C35.498 4.15039 35.5469 4.10156 35.6445 3.75977L45.7031-25.7812C46.2402-27.3926 45.8984-28.7598 44.4336-29.7363L18.9453-47.6562C18.6523-47.8516 18.5059-47.9492 18.6035-48.1445C18.6523-48.291 18.7988-48.291 19.1406-48.291L50.3418-47.9004C52.0508-47.8516 53.1738-48.584 53.7109-50.293L62.8418-80.0781C62.9395-80.4199 63.0371-80.5664 63.1836-80.5664C63.3301-80.5664 63.4277-80.4199 63.5254-80.0781L72.6562-50.293C73.1934-48.584 74.3164-47.8516 76.0254-47.9004L107.227-48.291C107.568-48.291 107.715-48.291 107.764-48.1445C107.812-47.9492 107.715-47.8516 107.422-47.6562L81.9336-29.7363C80.4688-28.7598 80.0781-27.3926 80.6641-25.7812L90.7227 3.75977C90.8203 4.10156 90.8691 4.15039 90.7227 4.29688C90.625 4.44336 90.4785 4.3457 90.1855 4.15039L65.2832-14.5996C63.916-15.625 62.4023-15.625 61.084-14.5996L36.1816 4.15039C35.8887 4.3457 35.7422 4.44336 35.5957 4.29688Z"/>
  </g>
 </g>
</svg>
