<?xml version="1.0" encoding="UTF-8"?>
<!--Generator: Apple Native CoreSVG 149-->
<!DOCTYPE svg
PUBLIC "-//W3C//DTD SVG 1.1//EN"
       "http://www.w3.org/Graphics/SVG/1.1/DTD/svg11.dtd">
<svg version="1.1" xmlns="http://www.w3.org/2000/svg" xmlns:xlink="http://www.w3.org/1999/xlink" width="118" height="128">
 <g id="Symbols">
  <g id="Light-M" transform="matrix(1 0 0 1 0 100)">
   <path d="M30.3711 11.4746C32.0312 12.6953 34.0332 12.3535 36.5723 10.498L63.1836-8.98438L89.7949 10.498C92.2852 12.3535 94.3359 12.6953 95.9473 11.4746C97.6074 10.2539 97.998 8.25195 96.9727 5.27344L86.5723-25.9766L113.379-45.2637C115.918-47.0703 116.797-48.9258 116.162-50.8789C115.527-52.7832 113.721-53.7598 110.596-53.7598L77.6855-53.5645L67.627-84.9609C66.6504-87.9883 65.1855-89.4043 63.1836-89.4043C61.1328-89.4043 59.7168-87.9883 58.7402-84.9609L48.6816-53.5645L15.7715-53.7598C12.5977-53.7598 10.791-52.7832 10.1562-50.8789C9.52148-48.9258 10.4492-47.0703 12.9883-45.2637L39.7461-25.9766L29.3945 5.27344C28.3691 8.25195 28.7598 10.2539 30.3711 11.4746Z"/>
  </g>
 </g>
</svg>
