<?xml version="1.0" encoding="UTF-8"?>
<!--Generator: Apple Native CoreSVG 175-->
<!DOCTYPE svg
PUBLIC "-//W3C//DTD SVG 1.1//EN"
       "http://www.w3.org/Graphics/SVG/1.1/DTD/svg11.dtd">
<svg version="1.1" xmlns="http://www.w3.org/2000/svg" xmlns:xlink="http://www.w3.org/1999/xlink" width="118" height="128">
 <g id="Symbols">
  <g id="Light-M" transform="matrix(1 0 0 1 0 100)">
   <path d="M13.4766-33.1055L51.3184-32.959Q51.7578-32.959 51.9531-32.7637Q52.1484-32.5684 52.1484-32.1289L52.2461 5.46875Q52.2461 7.22656 52.9785 8.42285Q53.7109 9.61914 54.9072 10.1807Q56.1035 10.7422 57.4219 10.5957Q58.7402 10.4492 59.9365 9.59473Q61.1328 8.74023 61.9141 7.08008L99.3164-72.8516Q100.342-75.0977 100.098-76.8311Q99.8535-78.5645 98.6816-79.6143Q97.5098-80.6641 95.7275-80.8105Q93.9453-80.957 91.8457-79.9805L11.5723-42.5781Q10.0098-41.8457 9.2041-40.6982Q8.39844-39.5508 8.27637-38.2324Q8.1543-36.9141 8.74023-35.7422Q9.32617-34.5703 10.498-33.8379Q11.6699-33.1055 13.4766-33.1055Z"/>
  </g>
 </g>
</svg>
