<?xml version="1.0" encoding="UTF-8"?>
<!--Generator: Apple Native CoreSVG 149-->
<!DOCTYPE svg
PUBLIC "-//W3C//DTD SVG 1.1//EN"
       "http://www.w3.org/Graphics/SVG/1.1/DTD/svg11.dtd">
<svg version="1.1" xmlns="http://www.w3.org/2000/svg" xmlns:xlink="http://www.w3.org/1999/xlink" width="116" height="128">
 <!--glyph: "uni10004C.medium", point size: 100.000000, font version: "Version 16.0d18e1", template writer version: "8"-->
 <g id="Symbols">
  <g id="Light-M" transform="matrix(1 0 0 1 0 100)">
   <path d="M57.7148 13.7207C84.5215 13.7207 106.689-8.44727 106.689-35.2539C106.689-62.1094 84.5215-84.2285 57.666-84.2285C30.8594-84.2285 8.74023-62.1094 8.74023-35.2539C8.74023-8.44727 30.9082 13.7207 57.7148 13.7207ZM57.7148 7.37305C34.082 7.37305 15.0879-11.6699 15.0879-35.2539C15.0879-58.8867 34.082-77.9297 57.666-77.9297C81.2988-77.9297 100.342-58.8867 100.391-35.2539C100.391-11.6699 81.3477 7.37305 57.7148 7.37305ZM38.4277-32.0801L54.541-32.0801L54.541-15.918C54.541-14.0625 55.8594-12.7441 57.6172-12.7441C59.5215-12.7441 60.8398-14.0625 60.8398-15.918L60.8398-32.0801L77.002-32.0801C78.8574-32.0801 80.1758-33.3984 80.1758-35.1562C80.1758-37.0605 78.8574-38.3789 77.002-38.3789L60.8398-38.3789L60.8398-54.4922C60.8398-56.3965 59.5215-57.7148 57.6172-57.7148C55.8594-57.7148 54.541-56.3965 54.541-54.4922L54.541-38.3789L38.4277-38.3789C36.5234-38.3789 35.2051-37.0605 35.2051-35.1562C35.2051-33.3984 36.5234-32.0801 38.4277-32.0801Z"/>
  </g>
 </g>
</svg>
